<svg width="24" height="24" viewBox="0 0 24 24" fill="none" xmlns="http://www.w3.org/2000/svg">
<path d="M10.2539 16.6257H4" stroke="#131313" stroke-width="1.4" stroke-linecap="round" stroke-linejoin="round"/>
<path fill-rule="evenodd" clip-rule="evenodd" d="M19.7647 16.6255C19.7647 18.0006 18.65 19.1153 17.2749 19.1153C15.8999 19.1153 14.7852 18.0006 14.7852 16.6255C14.7852 15.2494 15.8999 14.1357 17.2749 14.1357C18.65 14.1357 19.7647 15.2494 19.7647 16.6255Z" stroke="#131313" stroke-width="1.4" stroke-linecap="round" stroke-linejoin="round"/>
<path d="M13.5098 6.48998H19.7647" stroke="#131313" stroke-width="1.4" stroke-linecap="round" stroke-linejoin="round"/>
<path fill-rule="evenodd" clip-rule="evenodd" d="M4 6.48977C4 7.86586 5.1147 8.97954 6.48977 8.97954C7.86484 8.97954 8.97954 7.86586 8.97954 6.48977C8.97954 5.1147 7.86484 4 6.48977 4C5.1147 4 4 5.1147 4 6.48977Z" stroke="#131313" stroke-width="1.4" stroke-linecap="round" stroke-linejoin="round"/>
</svg>
