<svg width="24" height="24" viewBox="0 0 24 24" fill="none" xmlns="http://www.w3.org/2000/svg">
<path d="M14.1494 5.46967C14.4423 5.17678 14.9171 5.17678 15.21 5.46967C15.5029 5.76256 15.5029 6.23744 15.21 6.53033L14.1494 5.46967ZM8.36157 12.3181L7.83124 12.8484L7.30091 12.3181L7.83124 11.7878L8.36157 12.3181ZM15.21 18.1059C15.5029 18.3988 15.5029 18.8737 15.21 19.1666C14.9171 19.4595 14.4423 19.4595 14.1494 19.1666L15.21 18.1059ZM15.21 6.53033L8.8919 12.8484L7.83124 11.7878L14.1494 5.46967L15.21 6.53033ZM8.8919 11.7878L15.21 18.1059L14.1494 19.1666L7.83124 12.8484L8.8919 11.7878Z" fill="#131313"/>
</svg>
