<svg width="24" height="24" viewBox="0 0 24 24" fill="none" xmlns="http://www.w3.org/2000/svg">
<path d="M9.84674 18.5303C9.55384 18.8232 9.07897 18.8232 8.78608 18.5303C8.49318 18.2374 8.49318 17.7626 8.78608 17.4697L9.84674 18.5303ZM15.6345 11.6819L16.1649 11.1516L16.6952 11.6819L16.1649 12.2122L15.6345 11.6819ZM8.78608 5.8941C8.49318 5.60121 8.49318 5.12633 8.78608 4.83344C9.07897 4.54055 9.55384 4.54055 9.84674 4.83344L8.78608 5.8941ZM8.78608 17.4697L15.1042 11.1516L16.1649 12.2122L9.84674 18.5303L8.78608 17.4697ZM15.1042 12.2122L8.78608 5.8941L9.84674 4.83344L16.1649 11.1516L15.1042 12.2122Z" fill="#131313"/>
</svg>
