<svg width="54" height="54" viewBox="0 0 54 54" fill="none" xmlns="http://www.w3.org/2000/svg">
<path fill-rule="evenodd" clip-rule="evenodd" d="M15.9346 45.1791C16.9547 45.1791 17.7838 46.0082 17.7838 47.0283C17.7838 48.0483 16.9547 48.875 15.9346 48.875C14.9146 48.875 14.0879 48.0483 14.0879 47.0283C14.0879 46.0082 14.9146 45.1791 15.9346 45.1791Z" stroke="#EF8532" stroke-width="2" stroke-linecap="round" stroke-linejoin="round"/>
<path fill-rule="evenodd" clip-rule="evenodd" d="M43.1353 45.1791C44.1554 45.1791 44.9845 46.0082 44.9845 47.0283C44.9845 48.0483 44.1554 48.875 43.1353 48.875C42.1152 48.875 41.2861 48.0483 41.2861 47.0283C41.2861 46.0082 42.1152 45.1791 43.1353 45.1791Z" stroke="#EF8532" stroke-width="2" stroke-linecap="round" stroke-linejoin="round"/>
<path d="M4.64062 5.125L9.66844 5.9952L11.9962 33.728C12.1848 35.9881 14.0726 37.7236 16.34 37.7236H42.7167C44.8825 37.7236 46.7196 36.1331 47.0314 33.9866L49.3254 18.1345C49.6082 16.179 48.0926 14.4289 46.1177 14.4289H10.4758" stroke="#EF8532" stroke-width="2" stroke-linecap="round" stroke-linejoin="round"/>
<path d="M32.1387 23.3629H38.8416" stroke="#EF8532" stroke-width="2" stroke-linecap="round" stroke-linejoin="round"/>
</svg>
